<?xml version="1.0" encoding="utf-8"?>
<!-- Designed by Vexels.com - 2020 All Rights Reserved - https://vexels.com/terms-and-conditions/  -->
<svg version="1.1" id="Capa_1" xmlns="http://www.w3.org/2000/svg" xmlns:xlink="http://www.w3.org/1999/xlink" x="0px" y="0px"
	 viewBox="0 0 1200 1200" enable-background="new 0 0 1200 1200" xml:space="preserve">
<path fill="#06AA51" d="M1117.512,338.085c-0.568-45.563-3.3-91.057-6.757-136.482c-2.795-36.723,0.51-86.895-22.813-118.011
	c-16.18-22.021-43.349-34.971-71.062-33.474c-31.42,1.697-62.398,16.297-92.692,24.175
	c-108.315,28.166-221.715,52.86-328.963,90.799c-72.671,27.927-144.112,61.238-211.331,103.807
	C270.338,340.81,175.651,435.799,123.988,561.726c-59.816,145.798-51.08,303.892-0.054,450.725
	c6.984,20.096,14.728,39.927,23.151,59.463c8.264,19.167,15.395,40.677,32.937,53.545c21.476,15.752,55.448,31.238,82.116,21.52
	c25.139-9.161,34.053-36.948,46.14-58.663c49.179-98.357,119.49-182.083,182.579-271.311
	c42.919-60.702,89.971-129.234,107.836-202.378c-29.121,26.115-57.96,49.133-86.548,73.651
	c-28.573,24.307-56.469,49.373-83.421,75.925c-53.172,53.605-105.175,110.781-145.988,178.167
	c-21.135,32.978-38.373,69.268-53.897,106.168c0,0-4.616,12.585-4.617,12.586c5.754-15.689-29.479-88.313-34.361-109.203
	c-10.089-43.17-16.276-87.313-17.459-131.653C167.135,622.804,276.615,461.74,441.741,362.3
	C565.635,287.692,706.8,245.905,846.305,211.557c35.93-8.847,72.576-17.146,107.711-28.858c15.181-4.413,30.416-9.039,45.801-13.942
	c-5.061,2.102,12.04,162.65,12.245,171.206c1.741,72.703-1.057,145.337-9.497,216.709c-8.738,71.256-22.927,141.443-46.116,207.3
	c-31.341,88.764-81.344,175.006-159.88,229.864c-45.773,31.973-98.911,51.374-152.783,64.701
	c-26.595,6.579-53.527,11.796-80.554,16.249c-22.353,3.683-44.783,6.869-67.158,10.409c-4.579,0.712-18.406,5.435-22.384,3.563
	c35.423,16.67,73.302,27.102,112.377,32.114c39.047,4.938,79.506,4.682,119.462-2.784c79.741-14.953,157.344-55.406,216.203-114.072
	c29.626-29.106,55.005-61.941,76.265-96.706c21.296-34.808,38.289-71.494,52.837-108.709c14.059-37.391,25.15-75.464,34.218-113.736
	c8.796-38.32,15.345-76.889,20.319-115.465C1115.095,492.22,1118.471,414.972,1117.512,338.085z"/>
</svg>
